<svg width="596" height="398" viewBox="0 0 596 398" fill="none" xmlns="http://www.w3.org/2000/svg">
<g id="reset_new 1" clip-path="url(#clip0)">
<g id="tears">
<path id="Vector" opacity="0.1" d="M477.224 281.974C477.224 281.974 434.676 276.989 466.408 339.134C466.408 339.134 495.325 327.951 496.477 302.727C496.711 297.818 494.942 293.003 491.504 289.192C488.067 285.382 483.201 282.842 477.827 282.053L477.224 281.974Z" fill="#38D39F"/>
<path id="Vector_2" opacity="0.1" d="M477.848 281.881C477.848 281.881 487.48 316.533 466.44 339.139" stroke="#38D39F" stroke-miterlimit="10"/>
<path id="Vector_3" opacity="0.1" d="M465.864 342.341C465.864 342.341 481.184 308.267 509.792 295.628C521.837 290.396 531.676 281.777 537.829 271.066C540.704 265.965 543.055 260.636 544.853 255.147" stroke="#38D39F" stroke-width="2" stroke-miterlimit="10"/>
<path id="Vector_4" opacity="0.1" d="M562.829 247.092C559.847 250.475 544.413 255.427 544.413 255.427C544.413 255.427 546.271 240.719 549.253 237.361C549.934 236.484 550.806 235.742 551.815 235.181C552.825 234.62 553.952 234.251 555.125 234.098C556.299 233.944 557.495 234.009 558.64 234.288C559.785 234.567 560.855 235.055 561.783 235.721C562.711 236.387 563.478 237.218 564.038 238.161C564.597 239.105 564.936 240.142 565.035 241.209C565.133 242.275 564.989 243.349 564.611 244.363C564.232 245.378 563.628 246.311 562.835 247.107L562.829 247.092Z" fill="#38D39F"/>
<path id="Vector_5" opacity="0.1" d="M557.532 273.885C552.991 275.263 537.063 271.836 537.063 271.836C537.063 271.836 547.466 260.423 552.008 259.045C553.108 258.638 554.289 258.439 555.477 258.461C556.666 258.482 557.837 258.723 558.918 259.169C559.999 259.615 560.968 260.257 561.763 261.054C562.559 261.852 563.165 262.788 563.543 263.805C563.922 264.822 564.065 265.898 563.965 266.967C563.864 268.036 563.521 269.076 562.958 270.02C562.395 270.965 561.622 271.796 560.689 272.46C559.756 273.125 558.682 273.61 557.532 273.885Z" fill="#38D39F"/>
<path id="Vector_6" opacity="0.1" d="M528.816 305.561C524.128 304.683 512.291 294.466 512.291 294.466C512.291 294.466 527.654 289.353 532.347 290.231C534.471 290.765 536.291 292.007 537.438 293.707C538.584 295.406 538.973 297.436 538.524 299.384C538.075 301.332 536.822 303.053 535.02 304.199C533.218 305.345 531 305.83 528.816 305.556V305.561Z" fill="#38D39F"/>
<path id="Vector_7" opacity="0.1" d="M501.11 325.113C496.324 324.961 482.743 316.7 482.743 316.7C482.743 316.7 496.933 309.307 501.719 309.464C503.913 309.665 505.94 310.612 507.39 312.112C508.84 313.612 509.603 315.553 509.526 317.543C509.448 319.532 508.536 321.42 506.973 322.825C505.411 324.229 503.315 325.046 501.11 325.108V325.113Z" fill="#38D39F"/>
<path id="Vector_8" opacity="0.1" d="M522.232 262.241C522.846 266.531 533.217 277.964 533.217 277.964C533.217 277.964 540.045 264.531 539.437 260.241C539.362 259.17 539.045 258.124 538.504 257.168C537.964 256.212 537.212 255.366 536.294 254.683C535.377 254 534.314 253.494 533.172 253.197C532.029 252.899 530.831 252.816 529.651 252.953C528.472 253.091 527.336 253.445 526.314 253.994C525.292 254.543 524.406 255.276 523.711 256.146C523.016 257.017 522.525 258.007 522.271 259.055C522.017 260.104 522.003 261.188 522.232 262.241V262.241Z" fill="#38D39F"/>
<path id="Vector_9" opacity="0.1" d="M490.148 285.499C492.152 289.422 505.842 297.535 505.842 297.535C505.842 297.535 507.907 282.872 505.902 278.95C505.475 277.949 504.825 277.037 503.992 276.272C503.159 275.507 502.161 274.904 501.06 274.5C499.959 274.097 498.777 273.901 497.589 273.926C496.401 273.951 495.231 274.196 494.151 274.645C493.072 275.094 492.106 275.738 491.313 276.537C490.521 277.337 489.918 278.274 489.543 279.292C489.168 280.31 489.028 281.386 489.132 282.455C489.236 283.523 489.582 284.561 490.148 285.504V285.499Z" fill="#38D39F"/>
<path id="Vector_10" opacity="0.1" d="M462.398 311.944C463.637 316.121 475.616 326.201 475.616 326.201C475.616 326.201 480.396 312.067 479.152 307.89C478.921 306.836 478.452 305.837 477.776 304.954C477.099 304.07 476.228 303.322 475.218 302.754C474.208 302.187 473.079 301.813 471.902 301.655C470.725 301.498 469.524 301.56 468.375 301.838C467.225 302.116 466.152 302.604 465.22 303.272C464.288 303.94 463.518 304.774 462.958 305.721C462.398 306.669 462.059 307.71 461.963 308.78C461.866 309.851 462.015 310.928 462.398 311.944Z" fill="#38D39F"/>
<path id="Vector_11" opacity="0.25" d="M562.829 247.092C559.847 250.475 544.413 255.427 544.413 255.427C544.413 255.427 546.271 240.719 549.253 237.361C549.934 236.484 550.806 235.742 551.815 235.181C552.825 234.62 553.952 234.251 555.125 234.098C556.299 233.944 557.495 234.009 558.64 234.288C559.785 234.567 560.855 235.055 561.783 235.721C562.711 236.387 563.478 237.218 564.038 238.161C564.597 239.105 564.936 240.142 565.035 241.209C565.133 242.275 564.989 243.349 564.611 244.363C564.232 245.378 563.628 246.311 562.835 247.107L562.829 247.092Z" fill="black"/>
<path id="Vector_12" opacity="0.25" d="M557.532 273.885C552.991 275.263 537.063 271.836 537.063 271.836C537.063 271.836 547.466 260.423 552.008 259.045C553.108 258.638 554.289 258.439 555.477 258.461C556.666 258.482 557.837 258.723 558.918 259.169C559.999 259.615 560.968 260.257 561.763 261.054C562.559 261.852 563.165 262.788 563.543 263.805C563.922 264.822 564.065 265.898 563.965 266.967C563.864 268.036 563.521 269.076 562.958 270.02C562.395 270.965 561.622 271.796 560.689 272.46C559.756 273.125 558.682 273.61 557.532 273.885Z" fill="black"/>
<path id="Vector_13" opacity="0.25" d="M528.816 305.561C524.128 304.683 512.291 294.466 512.291 294.466C512.291 294.466 527.654 289.353 532.347 290.231C534.471 290.765 536.291 292.007 537.438 293.707C538.584 295.406 538.973 297.436 538.524 299.384C538.075 301.332 536.822 303.053 535.02 304.199C533.218 305.345 531 305.83 528.816 305.556V305.561Z" fill="black"/>
<path id="Vector_14" opacity="0.25" d="M501.11 325.113C496.324 324.961 482.743 316.7 482.743 316.7C482.743 316.7 496.933 309.307 501.719 309.464C503.913 309.665 505.94 310.612 507.39 312.112C508.84 313.612 509.603 315.553 509.526 317.543C509.448 319.532 508.536 321.42 506.973 322.825C505.411 324.229 503.315 325.046 501.11 325.108V325.113Z" fill="black"/>
<path id="Vector_15" opacity="0.25" d="M522.232 262.241C522.846 266.531 533.217 277.964 533.217 277.964C533.217 277.964 540.045 264.531 539.437 260.241C539.362 259.17 539.045 258.124 538.504 257.168C537.964 256.212 537.212 255.366 536.294 254.683C535.377 254 534.314 253.494 533.172 253.197C532.029 252.899 530.831 252.816 529.651 252.953C528.472 253.091 527.336 253.445 526.314 253.994C525.292 254.543 524.406 255.276 523.711 256.146C523.016 257.017 522.525 258.007 522.271 259.055C522.017 260.104 522.003 261.188 522.232 262.241V262.241Z" fill="black"/>
<path id="Vector_16" opacity="0.25" d="M490.148 285.499C492.152 289.422 505.842 297.535 505.842 297.535C505.842 297.535 507.907 282.872 505.902 278.95C505.475 277.949 504.825 277.037 503.992 276.272C503.159 275.507 502.161 274.904 501.06 274.5C499.959 274.097 498.777 273.901 497.589 273.926C496.401 273.951 495.231 274.196 494.151 274.645C493.072 275.094 492.106 275.738 491.313 276.537C490.521 277.337 489.918 278.274 489.543 279.292C489.168 280.31 489.028 281.386 489.132 282.455C489.236 283.523 489.582 284.561 490.148 285.504V285.499Z" fill="black"/>
<path id="Vector_17" opacity="0.25" d="M462.398 311.944C463.637 316.121 475.616 326.201 475.616 326.201C475.616 326.201 480.396 312.067 479.152 307.89C478.921 306.836 478.452 305.837 477.776 304.954C477.099 304.07 476.228 303.322 475.218 302.754C474.208 302.187 473.079 301.813 471.902 301.655C470.725 301.498 469.524 301.56 468.375 301.838C467.225 302.116 466.152 302.604 465.22 303.272C464.288 303.94 463.518 304.774 462.958 305.721C462.398 306.669 462.059 307.71 461.963 308.78C461.866 309.851 462.015 310.928 462.398 311.944Z" fill="black"/>
<path id="Vector_18" opacity="0.1" d="M486.269 357.843C486.269 357.843 501.589 323.769 530.196 311.13C542.237 305.894 552.069 297.274 558.217 286.563C561.092 281.462 563.443 276.133 565.241 270.645" stroke="#38D39F" stroke-width="2" stroke-miterlimit="10"/>
<path id="Vector_19" opacity="0.1" d="M583.207 262.585C580.224 265.967 564.79 270.919 564.79 270.919C564.79 270.919 566.648 256.211 569.631 252.853C571.111 251.368 573.164 250.448 575.37 250.282C577.576 250.116 579.77 250.716 581.502 251.96C583.235 253.203 584.377 254.996 584.694 256.974C585.012 258.951 584.482 260.963 583.212 262.599L583.207 262.585Z" fill="#38D39F"/>
<path id="Vector_20" opacity="0.1" d="M577.921 289.377C573.379 290.755 557.451 287.328 557.451 287.328C557.451 287.328 567.854 275.915 572.396 274.537C574.53 274.026 576.799 274.267 578.743 275.212C580.688 276.156 582.161 277.732 582.864 279.621C583.567 281.51 583.447 283.569 582.529 285.381C581.611 287.193 579.964 288.622 577.921 289.377V289.377Z" fill="#38D39F"/>
<path id="Vector_21" opacity="0.1" d="M549.204 321.073C544.516 320.195 532.679 309.978 532.679 309.978C532.679 309.978 548.042 304.865 552.736 305.742C554.859 306.277 556.679 307.519 557.826 309.219C558.972 310.918 559.361 312.947 558.912 314.896C558.463 316.844 557.211 318.565 555.408 319.711C553.606 320.857 551.388 321.342 549.204 321.068V321.073Z" fill="#38D39F"/>
<path id="Vector_22" opacity="0.1" d="M521.493 340.6C516.707 340.448 503.126 332.187 503.126 332.187C503.126 332.187 517.316 324.804 522.102 324.956C524.296 325.157 526.323 326.104 527.773 327.604C529.222 329.104 529.986 331.046 529.908 333.035C529.831 335.024 528.919 336.912 527.356 338.317C525.794 339.722 523.698 340.538 521.493 340.6V340.6Z" fill="#38D39F"/>
<path id="Vector_23" opacity="0.1" d="M542.615 277.753C543.229 282.043 553.599 293.476 553.599 293.476C553.599 293.476 560.428 280.043 559.819 275.753C559.745 274.682 559.427 273.636 558.887 272.68C558.346 271.724 557.594 270.878 556.677 270.195C555.76 269.512 554.697 269.006 553.554 268.709C552.412 268.411 551.214 268.328 550.034 268.465C548.854 268.602 547.719 268.957 546.697 269.506C545.675 270.055 544.789 270.788 544.094 271.658C543.398 272.529 542.908 273.519 542.654 274.567C542.399 275.616 542.386 276.7 542.615 277.753V277.753Z" fill="#38D39F"/>
<path id="Vector_24" opacity="0.1" d="M510.536 300.972C512.54 304.894 526.23 313.008 526.23 313.008C526.23 313.008 528.295 298.344 526.29 294.422C525.238 292.67 523.487 291.344 521.391 290.715C519.296 290.086 517.014 290.2 515.008 291.035C513.003 291.869 511.424 293.361 510.594 295.208C509.763 297.054 509.742 299.117 510.536 300.977V300.972Z" fill="#38D39F"/>
<path id="Vector_25" opacity="0.1" d="M482.787 327.446C484.025 331.623 496.004 341.703 496.004 341.703C496.004 341.703 500.785 327.569 499.54 323.392C498.829 321.508 497.351 319.938 495.405 319.001C493.46 318.064 491.192 317.829 489.062 318.345C486.931 318.86 485.098 320.087 483.933 321.777C482.768 323.467 482.358 325.494 482.787 327.446Z" fill="#38D39F"/>
</g>
<g id="head_back">
<path id="Vector_26" opacity="0.1" d="M6.43753 210.798C15.8684 247.176 35.8328 278.621 67.3848 293.863C132.955 325.539 280.833 309.204 391.2 290.431C446.964 280.981 497.583 254.871 534.906 216.304L6.43753 210.798Z" fill="#38D39F"/>
<path id="Vector_27" opacity="0.1" d="M585.189 39.5685H524.633C523.245 39.5685 521.914 39.0708 520.932 38.185C519.95 37.2991 519.399 36.0976 519.399 34.8448C519.399 33.592 519.95 32.3905 520.932 31.5047C521.914 30.6188 523.245 30.1212 524.633 30.1212H535.102C533.713 30.1212 532.382 29.6235 531.401 28.7376C530.419 27.8518 529.867 26.6503 529.867 25.3975C529.867 24.1447 530.419 22.9432 531.401 22.0573C532.382 21.1715 533.713 20.6738 535.102 20.6738H527.627C526.238 20.6738 524.907 20.1761 523.925 19.2903C522.944 18.4044 522.392 17.2029 522.392 15.9501C522.392 14.6973 522.944 13.4958 523.925 12.61C524.907 11.7241 526.238 11.2264 527.627 11.2264H559.233C552.219 8.28486 544.022 6.19144 534.58 5.09325C448.399 -4.8983 417.629 1.71044 406.775 8.52509C393.384 16.9086 378.445 23.0761 362.478 26.0471C309.3 35.9357 209.858 47.849 119.727 22.223C74.9305 9.4762 41.6347 31.0085 21.6811 66.9742H595.701C594.952 56.5218 592.708 46.8734 588.59 38.4213C587.646 39.1597 586.439 39.5669 585.189 39.5685Z" fill="#38D39F"/>
<path id="Vector_28" opacity="0.1" d="M1.29731 134.871C-1.02753 156.029 -0.236558 177.371 3.64958 198.341L535.318 215.887C550.118 200.523 562.544 183.421 572.259 165.047L1.29731 134.871ZM211.579 180.147H201.11C202.498 180.147 203.83 180.645 204.811 181.531C205.793 182.416 206.344 183.618 206.344 184.871C206.344 186.123 205.793 187.325 204.811 188.211C203.83 189.097 202.498 189.594 201.11 189.594H140.554C139.166 189.594 137.835 189.097 136.853 188.211C135.871 187.325 135.32 186.123 135.32 184.871C135.32 183.618 135.871 182.416 136.853 181.531C137.835 180.645 139.166 180.147 140.554 180.147H151.023C149.634 180.147 148.303 179.649 147.321 178.763C146.34 177.878 145.788 176.676 145.788 175.423C145.788 174.17 146.34 172.969 147.321 172.083C148.303 171.197 149.634 170.7 151.023 170.7H143.547C142.159 170.7 140.828 170.202 139.846 169.316C138.865 168.43 138.313 167.229 138.313 165.976C138.313 164.723 138.865 163.522 139.846 162.636C140.828 161.75 142.159 161.252 143.547 161.252H204.104C205.492 161.252 206.823 161.75 207.805 162.636C208.786 163.522 209.338 164.723 209.338 165.976C209.338 167.229 208.786 168.43 207.805 169.316C206.823 170.202 205.492 170.7 204.104 170.7H211.579C212.967 170.7 214.298 171.197 215.28 172.083C216.261 172.969 216.813 174.17 216.813 175.423C216.813 176.676 216.261 177.878 215.28 178.763C214.298 179.649 212.967 180.147 211.579 180.147Z" fill="#38D39F"/>
<path id="Vector_29" opacity="0.1" d="M595.728 67.3032L15.2708 80.0501C8.21394 96.4297 3.55829 114.947 1.38528 134.141H585.559C589.373 122.866 592.194 111.337 593.995 99.6606C595.734 88.3796 596.429 77.4664 595.728 67.3032ZM119.227 109.059H108.759C110.147 109.059 111.478 109.557 112.46 110.442C113.441 111.328 113.993 112.53 113.993 113.783C113.993 115.035 113.441 116.237 112.46 117.123C111.478 118.009 110.147 118.506 108.759 118.506H48.2026C46.8144 118.506 45.483 118.009 44.5014 117.123C43.5198 116.237 42.9684 115.035 42.9684 113.783C42.9684 112.53 43.5198 111.328 44.5014 110.442C45.483 109.557 46.8144 109.059 48.2026 109.059H58.671C57.2828 109.059 55.9515 108.561 54.9699 107.675C53.9883 106.789 53.4368 105.588 53.4368 104.335C53.4368 103.082 53.9883 101.881 54.9699 100.995C55.9515 100.109 57.2828 99.6115 58.671 99.6115H51.1959C49.8077 99.6115 48.4764 99.1139 47.4948 98.228C46.5132 97.3421 45.9617 96.1406 45.9617 94.8878C45.9617 93.6351 46.5132 92.4336 47.4948 91.5477C48.4764 90.6618 49.8077 90.1642 51.1959 90.1642H111.752C113.14 90.1642 114.472 90.6618 115.453 91.5477C116.435 92.4336 116.986 93.6351 116.986 94.8878C116.986 96.1406 116.435 97.3421 115.453 98.228C114.472 99.1139 113.14 99.6115 111.752 99.6115H119.227C120.615 99.6115 121.947 100.109 122.928 100.995C123.91 101.881 124.461 103.082 124.461 104.335C124.461 105.588 123.91 106.789 122.928 107.675C121.947 108.561 120.615 109.059 119.227 109.059V109.059Z" fill="#38D39F"/>
</g>
<g id="body">
<path id="Vector_30" d="M499 396.751C499 396.751 475.99 279.511 432.112 260.487C394.933 244.354 354.727 233.479 343.294 230.529C341.587 227.975 339.613 225.582 337.402 223.386C321.776 208.233 312.388 208.516 310.87 208.703C310.15 205.698 309.632 202.654 309.321 199.588C309.275 199.109 309.228 198.663 309.187 198.188L309.321 198.125C309.228 197.219 309.145 196.283 309.073 195.319C315.452 192.157 321.325 188.183 326.522 183.514C326.589 183.72 326.646 183.926 326.718 184.137C337.979 175.295 349.007 166.212 359.803 156.89C362.901 154.199 366.154 151.278 367.208 147.483C367.545 146.177 367.676 144.833 367.595 143.492C367.735 140.614 367.001 137.673 366.877 134.757C366.877 134.277 366.934 133.831 367.001 133.375C367.724 128.602 371.298 124.683 374.231 120.677C381.559 110.555 385.383 98.5951 385.194 86.398C385.274 80.5536 384.403 74.7315 382.612 69.1287C380.324 62.0195 375.563 54.5506 367.637 52.9964C364.569 52.3967 361.383 52.7709 358.254 52.5838C345.298 51.8163 335.6 42.0304 325.267 34.8588C312.656 26.1485 297.742 20.7712 282.107 19.2973C277.228 18.8176 272.188 18.784 267.545 20.2231C257.12 23.4467 250.789 33.4005 240.745 37.4924C233.319 40.5337 224.737 40.0396 216.991 42.323C205.46 45.7289 195.675 56.714 195.417 68.0014C195.417 68.4188 195.417 68.8361 195.417 69.2534C195.417 69.3254 195.417 69.3974 195.417 69.4645C195.287 75.1682 197.482 80.9774 197.658 86.8153C197.658 87.343 197.666 87.8723 197.683 88.4031C197.627 94.7064 196.816 101.029 194.342 106.953C193.01 110.143 191.296 113.837 191.575 117.027C191.42 118.979 191.828 120.812 193.289 122.304L195.783 120.26C194.947 124.466 194.527 128.734 194.528 133.011C194.528 154.568 205.083 173.872 221.732 186.862C221.828 188.298 221.921 189.836 222.01 191.477C222.403 198.586 222.713 207.503 222.625 217.222L198.272 238.017L135.666 264.401C135.666 264.401 78.4086 275.635 90.7399 350.359L96.6267 396.755H148.9L148.782 397H226.369L226.415 396.755H411.013L410.977 397H418.206V396.755L499 396.751ZM311.33 209.892C312.912 212.933 314.158 216.116 315.048 219.39C313.221 216.239 311.871 212.869 311.035 209.374L311.113 209.504L311.33 209.892ZM222.604 219.486C222.604 220.401 222.587 221.324 222.553 222.254L222.429 222.417C222.42 221.43 222.479 220.443 222.604 219.462V219.486Z" fill="#2CD59C"/>
</g>
<path id="Vector_31" d="M333.99 228.609L323.125 322.25L264.998 338.918C264.998 338.918 189.486 326.172 209.043 289.402C222.955 263.246 222.57 216.505 221.19 191.698C220.647 181.628 219.908 175.171 219.908 175.171C219.908 175.171 318.779 97.2191 310.631 167.327C309.055 180.902 308.963 191.516 309.837 199.811C313.504 234.345 333.99 228.609 333.99 228.609Z" fill="#FDC2CC"/>
<path id="Vector_32" opacity="0.03" d="M333.99 228.609L323.125 322.25L264.998 338.918C264.998 338.918 189.486 326.172 209.043 289.402C222.955 263.246 222.57 216.505 221.19 191.698C220.647 181.628 219.908 175.171 219.908 175.171C219.908 175.171 318.779 97.2191 310.631 167.327C309.055 180.902 308.963 191.516 309.837 199.811C313.504 234.345 333.99 228.609 333.99 228.609Z" fill="black"/>
<path id="Vector_33" opacity="0.1" d="M310.631 165.856C309.055 179.431 308.963 190.045 309.837 198.341C295.879 205.218 279.943 208.123 264.121 206.675C248.3 205.227 233.334 199.493 221.19 190.227C220.647 180.157 219.908 173.7 219.908 173.7C219.908 173.7 318.779 95.7483 310.631 165.856Z" fill="black"/>
<path id="Vector_34" d="M272.06 204.101C315.564 204.101 350.831 172.274 350.831 133.013C350.831 93.7523 315.564 61.9251 272.06 61.9251C228.556 61.9251 193.288 93.7523 193.288 133.013C193.288 172.274 228.556 204.101 272.06 204.101Z" fill="#FDC2CC"/>
<path id="Vector_35" opacity="0.03" d="M272.06 204.101C315.564 204.101 350.831 172.274 350.831 133.013C350.831 93.7523 315.564 61.9251 272.06 61.9251C228.556 61.9251 193.288 93.7523 193.288 133.013C193.288 172.274 228.556 204.101 272.06 204.101Z" fill="black"/>
<path id="Vector_36" opacity="0.1" d="M142.223 323.23C142.223 323.23 167.756 370.295 169.114 397.995Z" fill="black"/>
<path id="Vector_37" opacity="0.1" d="M420.367 350.199L413.033 398H420.367V350.199Z" fill="black"/>
<path id="Vector_38" opacity="0.1" d="M147.927 397.995L188.399 314.896C188.399 314.896 199.807 295.285 202.524 275.675C205.24 256.064 219.908 225.178 219.908 225.178C219.908 225.178 256.305 183.505 273.146 189.388C289.987 195.272 258.478 217.333 258.478 217.333C258.478 217.333 304.655 233.512 273.146 281.558C241.638 329.603 241.094 320.779 241.094 320.779L225.612 397.995H147.927Z" fill="black"/>
<path id="Vector_39" d="M146.841 397.995L187.313 314.896C187.313 314.896 198.721 295.285 201.437 275.675C203.165 263.207 209.722 246.18 214.269 235.429C217.237 228.4 221.604 221.92 227.155 216.309C238.922 204.425 260.293 185.26 272.06 189.379C288.901 195.262 257.392 217.324 257.392 217.324C257.392 217.324 303.568 233.502 272.06 281.548C240.551 329.594 240.008 320.769 240.008 320.769L224.525 397.985L146.841 397.995Z" fill="#FDC2CC"/>
<path id="Vector_40" opacity="0.15" d="M296.234 94.5275C297.135 94.5275 297.864 93.869 297.864 93.0567C297.864 92.2444 297.135 91.5859 296.234 91.5859C295.334 91.5859 294.605 92.2444 294.605 93.0567C294.605 93.869 295.334 94.5275 296.234 94.5275Z" fill="white"/>
<path id="Vector_41" opacity="0.15" d="M288.629 97.4691C289.529 97.4691 290.259 96.8106 290.259 95.9983C290.259 95.186 289.529 94.5275 288.629 94.5275C287.729 94.5275 286.999 95.186 286.999 95.9983C286.999 96.8106 287.729 97.4691 288.629 97.4691Z" fill="white"/>
<path id="Vector_42" opacity="0.1" d="M216.1 43.4274C223.96 41.133 232.685 41.6282 240.225 38.5788C250.422 34.4507 256.849 24.4592 267.431 21.2235C272.147 19.7821 277.264 19.836 282.213 20.2969C298.128 21.7916 313.283 27.1957 326.032 35.9215C336.522 43.1235 346.366 52.9434 359.518 53.7132C362.696 53.8995 365.928 53.522 369.041 54.125C377.103 55.684 381.932 63.1801 384.252 70.3036C386.935 78.7458 387.565 87.6119 386.096 96.2941C384.628 104.976 381.097 113.269 375.745 120.605C372.768 124.625 369.139 128.562 368.405 133.351C367.688 138.048 369.905 142.916 368.612 147.515C367.525 151.324 364.266 154.256 361.093 156.958C350.138 166.308 338.941 175.419 327.504 184.29C321.561 167.248 330.28 148.898 328.922 131.077C328.379 124.134 325.662 116.555 318.877 113.28C312.526 110.221 304.41 111.809 297.984 108.868C290.813 105.607 287.868 97.8858 282.447 92.5419C273.211 83.4231 257.18 82.2464 244.267 86.3646C231.354 90.4828 220.799 98.9546 210.586 107.216L192.023 122.242C188.399 118.555 191.148 112.898 193.109 108.289C196.032 101.381 196.673 93.9343 196.477 86.6C196.32 80.7168 194.071 74.9072 194.201 69.1809C194.462 57.8853 204.393 46.8446 216.1 43.4274Z" fill="black"/>
<path id="Vector_43" d="M216.1 41.9567C223.96 39.6622 232.685 40.1574 240.225 37.108C250.422 32.98 256.849 22.9884 267.431 19.7527C272.147 18.3113 277.264 18.3652 282.213 18.8261C298.128 20.3208 313.283 25.7249 326.032 34.4507C336.522 41.6527 346.366 51.4727 359.518 52.2424C362.696 52.4287 365.928 52.0512 369.041 52.6542C377.103 54.2132 381.932 61.7093 384.252 68.8329C386.935 77.2751 387.565 86.1411 386.096 94.8233C384.628 103.505 381.097 111.798 375.745 119.134C372.768 123.154 369.139 127.091 368.405 131.881C367.688 136.577 369.905 141.446 368.612 146.044C367.525 149.854 364.266 152.785 361.093 155.487C350.138 164.838 338.941 173.948 327.504 182.819C321.561 165.777 330.28 147.427 328.922 129.606C328.379 122.664 325.662 115.084 318.877 111.809C312.526 108.75 304.41 110.338 297.984 107.397C290.813 104.137 287.868 96.415 282.447 91.0712C273.211 81.9523 257.18 80.7756 244.267 84.8939C231.354 89.0121 220.799 97.4838 210.586 105.745L192.023 120.771C188.399 117.084 191.148 111.427 193.109 106.818C196.032 99.9106 196.673 92.4635 196.477 85.1292C196.32 79.246 194.071 73.4364 194.201 67.7102C194.462 56.4145 204.393 45.3738 216.1 41.9567Z" fill="#865A61"/>
</g>
<defs>
<clipPath id="clip0">
<rect width="596" height="398" fill="white"/>
</clipPath>
</defs>
</svg>
